<svg width="221" height="369" viewBox="0 0 221 369" fill="none" xmlns="http://www.w3.org/2000/svg">
<path d="M105.91 226.656H124.893L140.364 374.427H90.1946L105.91 226.656Z" fill="#93642D"/>
<path d="M105.774 226.656H124.633L132.832 306.191H97.5742L105.774 226.656Z" fill="#714D22"/>
<path fill-rule="evenodd" clip-rule="evenodd" d="M31.339 156.917C31.339 134.889 49.1966 117.031 71.225 117.031C93.2535 117.031 111.111 134.889 111.111 156.917V159.766C111.111 161.263 111.029 162.741 110.868 164.195C127.468 169.02 139.601 184.344 139.601 202.501V205.35C139.601 227.379 121.744 245.236 99.7151 245.236C87.8022 245.236 77.1092 240.014 69.8006 231.733C62.492 240.014 51.799 245.236 39.8861 245.236C17.8576 245.236 3.05176e-05 227.379 3.05176e-05 205.35V202.501C3.05176e-05 183.345 13.5037 167.344 31.5111 163.496C31.3972 162.268 31.339 161.024 31.339 159.766V156.917Z" fill="#66A865"/>
<path fill-rule="evenodd" clip-rule="evenodd" d="M121.019 278.59C107.499 294.851 83.3561 297.073 67.0946 283.553C50.8331 270.033 48.6107 245.891 62.1308 229.629L63.8794 227.526C64.7982 226.421 65.7661 225.38 66.7773 224.406C57.4841 210.655 57.9326 191.897 69.0767 178.493L70.8253 176.39C84.3453 160.128 108.488 157.906 124.75 171.426C133.544 178.738 138.232 189.156 138.545 199.754C149.022 198.127 160.121 200.835 168.916 208.146C185.177 221.666 187.4 245.809 173.879 262.071L172.131 264.174C160.374 278.315 140.584 281.839 124.93 273.628C124.26 274.604 123.539 275.558 122.767 276.486L121.019 278.59Z" fill="#66A865"/>
<path fill-rule="evenodd" clip-rule="evenodd" d="M111.459 143.734C111.459 121.643 129.698 103.736 151.789 103.736C173.879 103.736 192.118 121.643 192.118 143.734V147.277C192.118 148.682 192.044 150.07 191.9 151.438C208.579 156.307 220.925 171.65 220.925 189.824V193.368C220.925 215.458 202.685 233.365 180.595 233.365C168.615 233.365 157.768 228.099 150.348 219.754C142.929 228.099 132.081 233.365 120.101 233.365C98.0113 233.365 79.7722 215.458 79.7722 193.368V189.824C79.7722 170.643 93.5244 154.615 111.609 150.726C111.51 149.59 111.459 148.439 111.459 147.277V143.734Z" fill="#66A865"/>
<path fill-rule="evenodd" clip-rule="evenodd" d="M96.7713 87.0488C96.7713 64.9587 115.01 47.0511 137.101 47.0511C159.191 47.0511 177.43 64.9587 177.43 87.0488V90.5923C177.43 91.9975 177.356 93.3857 177.212 94.7534C193.891 99.6221 206.236 114.965 206.236 133.139V136.683C206.236 158.773 187.997 176.681 165.907 176.681C153.927 176.681 143.08 171.414 135.66 163.069C128.241 171.414 117.393 176.681 105.413 176.681C83.3231 176.681 65.0841 158.773 65.0841 136.683V133.139C65.0841 113.958 78.8363 97.9299 96.9206 94.0416C96.8218 92.9048 96.7713 91.7543 96.7713 90.5923V87.0488Z" fill="#66A865"/>
<path fill-rule="evenodd" clip-rule="evenodd" d="M39.1191 103.956C39.1191 85.6807 53.9343 70.8656 72.2097 70.8656C90.4852 70.8656 105.3 85.6808 105.3 103.956V106.32C105.3 107.562 105.232 108.788 105.099 109.994C118.871 113.997 128.937 126.71 128.937 141.774V144.138C128.937 162.413 114.121 177.228 95.8459 177.228C85.9626 177.228 77.0913 172.895 71.0279 166.026C64.9645 172.895 56.0932 177.228 46.2099 177.228C27.9344 177.228 13.1193 162.413 13.1193 144.138V141.774C13.1193 125.882 24.3224 112.606 39.2619 109.414C39.1674 108.395 39.1191 107.363 39.1191 106.32V103.956Z" fill="#66A865"/>
<path fill-rule="evenodd" clip-rule="evenodd" d="M145.437 72.0637C157.989 85.347 157.396 106.29 144.112 118.842C130.829 131.394 109.886 130.801 97.3338 117.518L95.7104 115.8C94.8574 114.897 94.0651 113.959 93.3333 112.99C80.5738 119.54 64.5265 117.213 54.1805 106.264L52.5572 104.546C40.0054 91.2625 40.5984 70.3191 53.8817 57.7673C61.0653 50.9794 70.4891 48.0358 79.6145 48.8646C79.3033 39.707 82.7755 30.4648 89.9591 23.6768C103.242 11.125 124.186 11.718 136.738 25.0013L138.361 26.7193C149.276 38.2704 150.251 55.614 141.585 68.1948C142.353 68.8703 143.097 69.5874 143.813 70.3457L145.437 72.0637Z" fill="#83C082"/>
<path fill-rule="evenodd" clip-rule="evenodd" d="M217.362 174.171C211.471 182.853 202.248 189.132 191.586 191.204C190.37 197.21 187.691 203.011 183.499 208.054L181.75 210.157C169.993 224.298 150.204 227.822 134.549 219.611C133.879 220.587 133.159 221.541 132.387 222.47L130.638 224.573C117.118 240.834 92.9755 243.057 76.714 229.537C67.1938 221.621 62.4854 210.065 62.9307 198.581C57.1045 201.911 50.3575 203.815 43.1659 203.815C27.1323 203.815 13.3083 194.354 6.97166 180.711C2.57353 187.122 9.15527e-05 194.883 9.15527e-05 203.246V206.095C9.15527e-05 228.123 17.8577 245.981 39.8861 245.981C45.3008 245.981 50.4635 244.902 55.171 242.947C50.4391 257.429 54.6671 273.965 67.0947 284.298C83.3562 297.818 107.499 295.596 121.019 279.334L122.768 277.231C123.539 276.303 124.26 275.348 124.93 274.372C140.584 282.584 160.374 279.059 172.131 264.918L173.88 262.815C180.815 254.473 183.608 244.058 182.488 234.066C203.718 233.078 220.925 215.568 220.925 194.112V190.569C220.925 184.726 219.648 179.175 217.362 174.171Z" fill="#458244"/>
</svg>
