<svg width="127" height="137" viewBox="0 0 127 137" fill="none" xmlns="http://www.w3.org/2000/svg">
<path d="M75.5404 51.3492C48.4781 29.6112 28.1875 35.1931 18.0251 67.4585C12.534 84.8955 14.8859 104.737 31.9474 111.584C35.4366 112.984 36.9577 114.312 39.0263 116.501C50.8094 128.924 70.807 122.536 85.4971 108.065C109.375 84.5409 100.528 64.7535 75.5404 51.3492Z" fill="#B52925"/>
<path d="M73.316 59.9824L70.9834 58.7715C76.4 49.4144 78.8211 40.6015 74.3968 33.0562C76.9145 28.9183 79.9569 28.0578 83.7227 31.6906C83.6131 39.5714 79.4405 49.325 73.316 59.9824Z" fill="#7F1B17"/>
<path d="M83.6696 31.6958C81.8622 34.9997 78.7602 35.4682 74.3437 33.0614C76.8615 28.9234 79.9038 28.0629 83.6696 31.6958Z" fill="#CD4A48"/>
<path d="M83.3026 59.4416C81.728 59.0974 80.6454 57.6287 80.8331 56.0281C82.7963 39.6361 94.2882 34.1225 111.748 38.4969C115.689 39.4853 118.941 39.9829 121.01 38.1956C119.547 55.4554 109.973 65.2872 83.3003 59.4332L83.3026 59.4416Z" fill="#16A34A"/>
<path d="M118.503 40.8527C112.751 44.7105 105.779 46.4698 98.9123 46.9815C93.179 47.2394 88.7187 51.0637 84.8601 54.9853C83.9436 55.8791 83.0453 56.8405 82.1571 57.7721C81.6059 58.4048 80.8209 59.0957 80.0575 59.4272C77.9672 60.3726 75.8079 60.4344 73.6034 60.463C73.5396 60.4619 73.4846 60.4087 73.4856 60.3449C73.4859 60.295 73.5191 60.2498 73.5644 60.2331C74.5752 59.8943 75.5911 59.6085 76.5666 59.2565C78.2298 58.6794 79.7213 58.0032 80.6427 56.5188L81.1141 55.8757C84.9085 50.6658 90.4689 46.1251 97.1841 45.4546C100.332 45.2773 103.471 45.216 106.577 44.6423C110.68 43.9869 114.683 42.6653 118.374 40.6563C118.495 40.5831 118.624 40.7795 118.495 40.855L118.503 40.8527Z" fill="#EBA956"/>
<path d="M64.1613 46.0165C66.0279 47.8735 67.4263 50.1825 68.645 52.4806C69.7171 54.4009 70.5383 56.4339 72.0128 58.0288C74.9826 60.8732 79.2078 61.382 83.1847 61.9619C84.4754 62.2281 85.8415 62.6236 86.8368 63.5128C85.6194 62.9958 84.3602 62.8981 83.0876 62.8855C78.7473 63.0467 73.938 62.6082 70.6744 59.3439C69.0378 57.5839 68.2071 55.2452 67.3149 53.0999C66.3525 50.6923 65.3983 48.3323 64.1644 46.0111L64.1613 46.0165Z" fill="#A21E22"/>
<path d="M47.8367 48.94C43.4468 51.7754 39.3365 54.4362 35.6321 58.0534C32.1207 61.7822 29.5793 66.407 28.2836 71.4006C28.2561 71.5349 28.0305 71.5047 28.0503 71.3588C29.0741 62.5759 35.1291 52.5218 43.8091 49.575C45.0869 49.1329 46.4071 48.8154 47.7586 48.7162C47.8784 48.7067 47.9376 48.8767 47.8367 48.94Z" fill="#CF5144"/>
</svg>
