<svg width="284" height="133" viewBox="0 0 284 133" fill="none" xmlns="http://www.w3.org/2000/svg">
<path d="M60.8841 98.7061C60.8841 99.2927 60.5614 99.8794 59.9161 100.466C59.2707 101.053 58.2734 101.375 56.9241 101.434C55.2227 101.434 53.3161 100.759 51.2041 99.4101C49.1507 98.1194 46.9801 96.3594 44.6921 94.1301C42.4041 91.8421 40.1161 89.2901 37.8281 86.4741C35.5401 83.6581 33.3401 80.7541 31.2281 77.7621C29.1161 74.7114 27.2094 71.7781 25.5081 68.9621C24.1001 75.0047 22.9561 80.1087 22.0761 84.2741C21.2547 88.4394 20.4627 91.6074 19.7001 93.7781C18.9961 95.8901 18.1161 96.9461 17.0601 96.9461C16.1214 96.9461 15.2121 96.3887 14.3321 95.2741C13.5107 94.1007 13.1001 91.9007 13.1001 88.6741C13.1001 86.9727 13.2174 85.2421 13.4521 83.4821C13.6867 81.6634 14.0974 79.5221 14.6841 77.0581C15.2707 74.5354 16.0627 71.3674 17.0601 67.5541C16.4147 67.0261 16.0041 66.4981 15.8281 65.9701C15.6521 65.4421 15.5641 64.8554 15.5641 64.2101C15.5641 63.3887 15.7987 62.5674 16.2681 61.7461C16.7374 60.9247 17.6467 60.3087 18.9961 59.8981C21.0494 53.0341 22.6921 47.6074 23.9241 43.6181C25.1561 39.5701 26.2414 36.6954 27.1801 34.9941C28.1774 33.2341 29.2334 32.3541 30.3481 32.3541C32.7534 32.3541 33.9561 33.7914 33.9561 36.6661C33.9561 37.7221 33.4574 40.0687 32.4601 43.7061C31.4627 47.2847 29.9374 52.7994 27.8841 60.2501C32.5187 56.9061 36.8601 53.4741 40.9081 49.9541C44.9561 46.4341 48.6521 43.0901 51.9961 39.9221C55.3401 36.6954 58.2734 33.8207 60.7961 31.2981C63.3187 28.7754 65.3721 26.7807 66.9561 25.3141C68.5401 23.8474 69.5961 23.1141 70.1241 23.1141C71.1214 23.1141 71.9427 23.4367 72.5881 24.0821C73.2921 24.7274 73.6441 25.4607 73.6441 26.2821C73.6441 27.2794 73.2334 28.2474 72.4121 29.1861C71.0041 30.8287 69.1267 32.9701 66.7801 35.6101C64.4334 38.2501 61.7934 41.0954 58.8601 44.1461C55.9267 47.1381 52.8467 50.0714 49.6201 52.9461C46.4521 55.8207 43.2841 58.3727 40.1161 60.6021C36.9481 62.7727 33.9854 64.2981 31.2281 65.1781C32.0494 66.1167 32.8707 67.0847 33.6921 68.0821C34.5134 69.0794 35.2761 70.0474 35.9801 70.9861C38.0921 73.7434 40.4974 76.6767 43.1961 79.7861C45.9534 82.8954 48.7401 85.8581 51.5561 88.6741C54.3721 91.4314 56.9241 93.7194 59.2121 95.5381C60.3267 96.5354 60.8841 97.5914 60.8841 98.7061ZM81.5792 99.1461C80.4645 99.1461 79.4672 98.7354 78.5872 97.9141C77.7072 97.0341 77.2672 95.6847 77.2672 93.8661C77.2672 92.5754 77.4432 90.7861 77.7952 88.4981C78.1472 86.1514 78.6165 83.5994 79.2032 80.8421C79.7899 78.0847 80.4059 75.3567 81.0512 72.6581C81.7552 69.9007 82.4592 67.4367 83.1632 65.2661C83.8672 63.0954 84.4832 61.4821 85.0112 60.4261C85.4805 59.6047 85.9205 59.0767 86.3312 58.8421C86.8005 58.6074 87.2405 58.4901 87.6512 58.4901C88.4725 58.4901 89.1765 58.7541 89.7632 59.2821C90.4085 59.8101 90.7312 60.8367 90.7312 62.3621C90.7312 63.2421 90.5552 64.7087 90.2032 66.7621C89.9099 68.7567 89.4992 71.1034 88.9712 73.8021C88.5019 76.4421 87.9739 79.1701 87.3872 81.9861C86.8592 84.7434 86.3312 87.3834 85.8032 89.9061C85.2752 92.4287 84.8645 94.5407 84.5712 96.2421C84.3365 97.1807 83.9259 97.9141 83.3392 98.4421C82.8112 98.9114 82.2245 99.1461 81.5792 99.1461ZM90.2032 50.4821C88.8539 50.4821 87.5632 50.0714 86.3312 49.2501C85.1579 48.4287 84.5712 47.1087 84.5712 45.2901C84.5712 43.7647 84.9232 42.5327 85.6272 41.5941C86.3899 40.6554 87.2699 39.9807 88.2672 39.5701C89.3232 39.1007 90.2325 38.8661 90.9952 38.8661C91.7579 38.8661 92.6085 39.0421 93.5472 39.3941C94.5445 39.6874 95.3952 40.2741 96.0992 41.1541C96.8032 41.9754 97.1552 43.2074 97.1552 44.8501C97.1552 45.9647 96.7739 46.9621 96.0112 47.8421C95.2485 48.6634 94.3099 49.3087 93.1952 49.778C92.1392 50.2474 91.1419 50.4821 90.2032 50.4821ZM106.278 100.378C105.34 100.378 104.548 99.9967 103.902 99.2341C103.257 98.4714 102.934 97.4154 102.934 96.0661C102.934 95.0687 103.14 93.4261 103.55 91.1381C104.02 88.7914 104.518 86.0634 105.046 82.9541C105.633 79.8447 106.132 76.6181 106.542 73.2741C106.953 69.8714 107.158 66.6154 107.158 63.5061C107.158 61.9807 107.54 60.8661 108.302 60.1621C109.124 59.3994 110.033 59.0181 111.03 59.0181C111.969 59.0181 112.673 59.6047 113.142 60.7781C113.612 61.9514 113.7 64.2981 113.406 67.8181C116.105 61.8341 119.068 57.0234 122.294 53.3861C125.58 49.6901 128.836 47.0501 132.062 45.4661C135.289 43.8234 138.193 43.0021 140.774 43.0021C142.476 43.0021 143.708 43.3541 144.47 44.0581C145.292 44.7034 145.702 45.4367 145.702 46.2581C145.702 47.3727 145.233 48.2527 144.294 48.8981C143.414 49.4847 141.86 50.1887 139.63 51.01C137.049 52.0074 134.673 53.1807 132.502 54.5301C130.39 55.8207 128.366 57.5221 126.43 59.6341C124.553 61.7461 122.705 64.4447 120.886 67.7301C119.068 70.9567 117.249 74.9461 115.43 79.6981C113.612 84.4501 111.676 90.1701 109.622 96.8581C109.27 98.1487 108.801 99.0581 108.214 99.5861C107.686 100.114 107.041 100.378 106.278 100.378ZM150.246 97.0341C148.017 97.0341 146.169 96.0074 144.702 93.9541C143.294 91.8421 142.59 89.1141 142.59 85.7701C142.59 82.8367 143.323 80.0207 144.79 77.3221C146.257 74.5647 148.193 71.9247 150.598 69.4021C153.062 66.8794 155.79 64.5621 158.782 62.4501C161.774 60.2794 164.795 58.3141 167.846 56.5541C170.955 54.7941 173.889 53.2981 176.646 52.0661C179.462 50.8341 181.867 49.8954 183.862 49.2501C185.857 48.5461 187.235 48.1941 187.998 48.1941C189.289 48.1941 189.934 48.8981 189.934 50.3061C189.934 51.5381 189.435 52.6234 188.438 53.5621C187.499 54.5007 186.355 55.2927 185.006 55.9381C182.542 57.1701 179.726 58.6367 176.558 60.3381C173.449 61.9807 170.281 63.8287 167.054 65.8821C163.886 67.8767 160.923 70.0181 158.166 72.3061C155.467 74.5941 153.297 76.9994 151.654 79.5221C150.011 81.9861 149.19 84.5087 149.19 87.0901C149.19 87.8527 149.337 88.4394 149.63 88.8501C149.982 89.2607 150.569 89.4661 151.39 89.4661C152.446 89.4661 153.795 88.9674 155.438 87.9701C157.139 86.9141 158.987 85.5354 160.982 83.8341C163.035 82.0741 165.059 80.1381 167.054 78.0261C169.107 75.9141 171.014 73.7727 172.774 71.6021C174.534 69.3727 175.971 67.2901 177.086 65.3541C177.731 64.2981 178.465 63.4181 179.286 62.7141C180.107 61.9514 180.987 61.5701 181.926 61.5701C183.217 61.5701 183.862 62.3327 183.862 63.8581C183.862 64.3274 183.686 65.5301 183.334 67.4661C183.041 69.4021 182.718 71.7487 182.366 74.5061C182.014 77.2047 181.838 80.0501 181.838 83.0421C181.838 89.4367 183.363 92.6341 186.414 92.6341C188.115 92.6341 189.875 91.9887 191.694 90.6981C193.571 89.4074 195.39 87.7647 197.15 85.7701C198.969 83.7167 200.641 81.5461 202.166 79.2581C203.691 76.9701 204.982 74.7994 206.038 72.7461C207.094 70.6927 207.827 69.0501 208.238 67.8181C209.177 61.2474 210.497 56.5247 212.198 53.6501C213.958 50.7754 215.747 49.3381 217.566 49.3381C218.739 49.3381 219.678 49.6607 220.382 50.3061C221.086 50.8927 221.438 52.2127 221.438 54.2661C221.438 55.6741 220.881 57.7861 219.766 60.6021C218.651 63.4181 217.155 66.4981 215.278 69.8421C214.75 72.8341 214.457 75.9141 214.398 79.0821C214.339 82.2501 214.662 85.1541 215.366 87.7941C216.891 87.0314 218.417 85.6527 219.942 83.6581C221.467 81.6047 223.022 79.2287 224.606 76.5301C226.19 73.8314 227.745 71.0447 229.27 68.1701C230.854 65.2954 232.409 62.6554 233.934 60.2501C235.518 57.7861 237.043 55.7914 238.51 54.2661C240.035 52.7407 241.531 51.9781 242.998 51.9781C244.875 51.9781 246.43 52.5647 247.662 53.7381C248.894 54.8527 249.833 56.8474 250.478 59.7221C251.123 62.5381 251.446 66.5274 251.446 71.6901C251.446 74.4474 251.71 77.0287 252.238 79.4341C252.825 81.8394 253.734 83.7754 254.966 85.2421C256.257 86.6501 257.899 87.3541 259.894 87.3541C262.886 87.3541 265.555 86.8261 267.902 85.7701C270.249 84.6554 272.273 83.4234 273.974 82.0741C275.734 80.6661 277.201 79.4341 278.374 78.3781C279.547 77.2634 280.457 76.7061 281.102 76.7061C282.451 76.7061 283.126 77.4101 283.126 78.8181C283.126 79.4047 282.686 80.3434 281.806 81.6341C280.985 82.8661 279.811 84.2741 278.286 85.8581C276.819 87.3834 275.118 88.8794 273.182 90.3461C271.305 91.7541 269.281 92.9274 267.11 93.8661C264.998 94.8047 262.857 95.2741 260.686 95.2741C256.638 95.2741 253.323 94.4821 250.742 92.8981C248.219 91.3141 246.342 88.7034 245.11 85.0661C243.937 81.4287 243.35 76.5594 243.35 70.4581C243.35 67.1141 243.233 64.6794 242.998 63.1541C242.763 61.5701 242.177 60.5141 241.238 59.9861C240.534 61.2181 239.595 62.9781 238.422 65.2661C237.307 67.4954 236.017 69.9887 234.55 72.7461C233.142 75.5034 231.617 78.2901 229.974 81.1061C228.331 83.8634 226.659 86.4154 224.958 88.7621C223.257 91.0501 221.555 92.9274 219.854 94.3941C218.153 95.8021 216.539 96.5061 215.014 96.5061C214.017 96.5061 212.99 95.9781 211.934 94.9221C210.878 93.8074 209.998 92.3701 209.294 90.6101C208.59 88.7914 208.238 86.8554 208.238 84.8021C208.238 83.4527 208.267 82.1914 208.326 81.0181C205.921 84.4207 203.398 87.5887 200.758 90.5221C198.118 93.3967 195.478 95.7141 192.838 97.4741C190.198 99.2341 187.734 100.114 185.446 100.114C183.627 100.114 181.926 99.4687 180.342 98.1781C178.758 96.8287 177.467 94.5701 176.47 91.4021C175.531 88.1754 175.003 83.8047 174.886 78.2901C172.305 81.9274 169.577 85.1541 166.702 87.9701C163.827 90.7861 160.982 93.0154 158.166 94.6581C155.35 96.2421 152.71 97.0341 150.246 97.0341Z" fill="#1E1E1E"/>
<path d="M84.8115 44.7146C84.9698 42.34 86.1175 40.3414 88.591 39.253C91.1239 38.1251 94.1911 39.0552 95.6752 41.4693C95.695 41.5089 95.7148 41.5682 95.7543 41.6078C96.249 42.1223 96.4469 42.7951 96.625 43.4679C97.1791 45.7238 96.3876 48.2171 94.6264 49.721C92.054 51.9372 88.2349 51.581 86.1175 48.8503C85.2469 47.7224 84.8313 46.4163 84.8115 44.7146ZM96.0512 44.6156C96.0512 44.0616 95.8731 43.27 95.4971 42.4983C95.4575 42.4191 95.4179 42.3598 95.3982 42.2806C95.2992 41.8849 95.042 41.6078 94.7847 41.3308C92.8257 39.253 89.6992 39.0749 87.5621 40.9548C85.4249 42.8545 85.1281 46.2185 86.9288 48.4149C88.1755 49.9386 89.8179 50.5521 91.7571 50.1959C94.29 49.721 96.071 47.4849 96.0512 44.6156Z" fill="black"/>
<path d="M93.6052 57.0821C93.5854 57.1811 93.5854 57.3196 93.5458 57.4383C93.4865 57.6164 93.3282 57.7153 93.1896 57.7153C93.0313 57.7153 92.8928 57.6164 92.8335 57.4779C92.7741 57.3394 92.7345 57.2008 92.6949 57.0623C92.4773 56.1125 92.3388 55.1429 92.2002 54.1733C92.1607 53.8171 92.1211 53.4807 92.0815 53.1245C92.0617 52.986 92.0815 52.8277 92.1211 52.6892C92.1607 52.5111 92.319 52.4121 92.4773 52.3923C92.6356 52.3923 92.7741 52.4715 92.8335 52.61C92.8928 52.7089 92.9126 52.8277 92.9522 52.9464C93.1896 54.0347 93.3677 55.1231 93.5063 56.2312C93.5458 56.5083 93.5656 56.7853 93.6052 57.0821Z" fill="black"/>
<path d="M86.4935 51.304C86.4737 51.3436 86.4539 51.4228 86.4341 51.5019C86.3748 51.6404 86.3154 51.779 86.2363 51.8977C85.603 53.0256 84.9302 54.114 84.1585 55.1429C84.0794 55.2419 84.0002 55.3606 83.9013 55.4398C83.7825 55.5585 83.6044 55.5783 83.4857 55.4991C83.367 55.42 83.3076 55.2617 83.367 55.1034C83.4066 54.9846 83.4461 54.8659 83.5055 54.767C84.0991 53.5599 84.7917 52.432 85.5635 51.3238C85.6228 51.2249 85.702 51.1259 85.8009 51.0468C85.8603 50.9874 85.9592 50.9281 86.0384 50.8885C86.2758 50.8093 86.5133 51.0072 86.4935 51.304Z" fill="black"/>
<path d="M101.612 51.2248C101.592 51.4623 101.434 51.6008 101.255 51.581C101.157 51.5612 101.077 51.5414 100.978 51.5019C99.9494 51.0863 98.9798 50.5718 98.03 49.9782C97.8519 49.8792 97.6936 49.7605 97.5946 49.5626C97.5155 49.4241 97.5155 49.2658 97.6144 49.1471C97.7134 49.0283 97.8519 48.969 98.0102 49.0085C98.0498 49.0085 98.0894 49.0283 98.1289 49.0481C98.1685 49.0679 98.2081 49.0679 98.2477 49.0877C99.2568 49.5626 100.266 50.0573 101.176 50.7103C101.275 50.7895 101.394 50.8686 101.493 50.9676C101.552 51.0665 101.592 51.1655 101.612 51.2248Z" fill="black"/>
<path d="M90.4066 35.2361C90.4066 35.7505 90.4066 36.265 90.4066 36.7795C90.4066 36.9378 90.367 37.0961 90.3274 37.2544C90.2681 37.4325 90.1098 37.5315 89.9515 37.5315C89.7932 37.5315 89.6546 37.4127 89.6151 37.2149C89.5755 36.9774 89.5359 36.74 89.5161 36.4827C89.4963 35.612 89.4963 34.7216 89.5161 33.8509C89.5161 33.6728 89.5557 33.4947 89.5953 33.3364C89.6546 33.1187 89.813 33 89.991 33C90.1691 33 90.3077 33.1187 90.3472 33.3364C90.3868 33.4749 90.3868 33.6134 90.3868 33.7322C90.4066 34.2269 90.4066 34.7414 90.4066 35.2361Z" fill="black"/>
<path d="M81.0518 37.5513C81.0716 37.5513 81.1309 37.5711 81.1705 37.5908C81.2497 37.6304 81.3288 37.67 81.3882 37.7096C82.1401 38.3428 82.8921 38.9562 83.5253 39.7082C83.6045 39.8071 83.6836 39.9258 83.743 40.0446C83.8419 40.2425 83.8221 40.4008 83.6836 40.5393C83.5649 40.658 83.3868 40.6778 83.1889 40.5789C83.09 40.5195 82.991 40.4403 82.8921 40.3612C82.1599 39.7675 81.5069 39.0947 80.8737 38.4219C80.7748 38.323 80.6956 38.1845 80.6362 38.046C80.5571 37.8085 80.755 37.5513 81.0518 37.5513Z" fill="black"/>
<path d="M98.8482 35.4814C98.8086 35.5605 98.769 35.699 98.7097 35.8178C98.5118 36.1937 98.3139 36.5895 98.0764 36.9457C97.7598 37.4404 97.4234 37.9351 97.0672 38.4298C97.0079 38.5287 96.9089 38.6277 96.8298 38.7068C96.7506 38.786 96.6319 38.786 96.533 38.7266C96.434 38.6673 96.4142 38.5683 96.434 38.4694C96.4538 38.3704 96.4736 38.2913 96.5132 38.1923C96.9287 37.2821 97.3443 36.3718 97.8786 35.521C97.9775 35.3626 98.0962 35.2043 98.2347 35.0856C98.3535 34.9669 98.492 34.9471 98.6503 35.0263C98.7888 35.1054 98.868 35.2637 98.8482 35.4814Z" fill="black"/>
<path d="M101.335 43.3491C101.651 43.3491 101.988 43.3491 102.304 43.3491C102.403 43.3491 102.522 43.3689 102.621 43.4085C102.72 43.4481 102.799 43.547 102.779 43.6657C102.779 43.7647 102.72 43.8438 102.621 43.8834C102.502 43.923 102.364 43.9626 102.225 43.9824C101.513 44.0813 100.8 44.1604 100.088 44.2396C99.8703 44.2594 99.6526 44.2594 99.4349 44.2396C99.2964 44.2198 99.1381 44.2 98.9996 44.1209C98.7819 44.0021 98.7819 43.7251 98.9798 43.5866C99.0787 43.5272 99.1975 43.4877 99.3162 43.4679C99.7515 43.4085 100.207 43.3689 100.642 43.3293C100.899 43.3491 101.117 43.3689 101.335 43.3491Z" fill="black"/>
<path d="M80.5571 47.4255C80.4581 47.4255 80.3988 47.4255 80.3394 47.4057C80.1613 47.3662 80.0228 47.2672 80.003 47.1089C79.9832 46.9506 80.0624 46.8121 80.2009 46.733C80.3196 46.6736 80.4383 46.6142 80.5769 46.5746C81.032 46.4163 81.5069 46.357 81.962 46.2976C82.338 46.2382 82.714 46.1789 83.09 46.1195C83.2087 46.0997 83.3274 46.0997 83.4461 46.0997C83.5649 46.0997 83.6638 46.1195 83.7034 46.258C83.743 46.3768 83.644 46.4559 83.5649 46.5351C83.5055 46.5746 83.4461 46.6142 83.3868 46.634C83.3274 46.6736 83.268 46.6934 83.1889 46.7132C82.4567 46.9308 81.7048 47.1485 80.9726 47.3464C80.8341 47.4057 80.6758 47.4057 80.5571 47.4255Z" fill="black"/>
</svg>
